<svg width="192" height="269" viewBox="0 0 192 269" fill="none" xmlns="http://www.w3.org/2000/svg">
<path d="M106.883 163.683C106.641 165.133 106.157 167.066 105.189 168.999C105.189 168.999 104.464 170.449 103.012 172.624C102.77 173.107 102.287 173.832 101.803 174.557C100.109 177.457 97.6905 181.324 95.2715 185.432C93.0944 189.057 90.9174 192.924 88.4984 197.032C84.6281 203.798 80.5158 211.048 77.1292 217.573C73.5008 224.581 70.598 230.381 69.3886 234.248C67.9372 238.839 71.8075 249.472 72.7751 251.889C73.017 252.131 73.017 252.372 73.017 252.372C74.4684 254.547 76.4036 256.48 78.3387 258.414C81.2415 261.555 83.4186 263.73 80.2739 263.972L77.8549 263.005L73.5008 261.314L62.1317 256.964C60.1965 256.239 58.7451 254.547 58.2613 252.614L56.568 246.331L53.9072 253.581L49.7949 251.889C53.4234 242.706 49.7949 239.323 58.987 229.898C61.6479 227.239 65.0344 207.182 69.1467 191.715C70.598 185.915 72.2913 180.841 73.9846 177.457C75.6779 174.074 77.3711 171.416 79.3063 168.757C79.5482 168.274 80.032 167.791 80.2739 167.307C82.9348 163.683 85.5956 160.783 87.2889 158.849C88.9822 157.158 89.9498 156.433 89.9498 156.433C98.4162 153.533 108.092 154.983 106.883 163.683Z" fill="#F0A073"/>
<path d="M58.5007 229.898C58.5007 229.898 58.9845 229.898 59.2264 230.14C61.6453 231.59 63.0967 234.248 63.3386 236.906L64.0643 243.914C64.3062 247.056 66.4833 249.714 69.386 250.681L72.7726 251.889C72.7726 252.131 72.7726 252.131 72.7726 252.131C76.8848 257.931 84.8674 263.247 79.7876 263.489L61.6453 256.481C59.7102 255.756 58.2588 254.064 57.775 252.131L56.0817 245.848L53.4208 253.097L49.3086 251.406C52.937 242.706 49.3086 239.081 58.5007 229.898Z" fill="#C21E1D"/>
<path d="M33.8264 115.109L71.8041 134.2C71.8041 134.2 70.1108 140.966 69.6271 140.966C57.2903 138.792 32.1331 131.3 26.0857 127.192C18.8288 122.6 25.36 110.276 33.8264 115.109Z" fill="#456F96"/>
<path d="M51.4839 10.9524C50.5163 8.29414 50.0325 5.15253 47.8555 3.4609C53.9029 3.21923 59.7084 7.56914 61.6436 13.1274C62.3693 15.544 62.6112 18.2022 64.0625 20.1355C58.4989 19.8939 53.4191 16.269 51.4839 10.9524Z" fill="#21201D"/>
<path d="M49.5494 37.5351L48.8237 41.1601L47.8562 45.0266L46.8886 49.6182L45.921 54.2097L44.7115 60.7346L27.2949 48.4099L33.8261 23.5188L49.5494 37.5351Z" fill="#FFAE80"/>
<path d="M44.4693 54.2096C50.0329 77.1674 61.1601 76.4424 62.6115 89.2505C63.5791 98.6753 53.6614 102.3 53.6614 102.3C50.7586 115.592 48.5815 127.191 49.5491 135.891C49.5491 135.891 21.2472 130.575 19.312 130.091C23.9081 116.8 15.6836 102.3 15.6836 77.8924C15.6836 64.8427 27.7784 46.7181 27.7784 46.7181C27.7784 46.7181 43.7436 50.5847 44.4693 54.2096Z" fill="#FFAE80"/>
<path d="M63.3375 89.2508C63.3375 89.7341 63.3375 90.4591 63.3375 90.9424C63.0956 99.1589 53.6617 102.3 53.6617 102.3C53.6617 103.025 53.6617 103.509 53.6617 104.234C53.6617 104.959 53.6617 105.442 53.6617 105.925C53.6617 107.859 53.4198 109.792 53.1779 111.725C52.936 115.592 52.4522 118.975 51.9684 122.117C51.4846 125.983 50.7589 129.85 50.517 133.233C50.517 133.716 50.517 134.2 50.2751 134.683C50.2751 134.683 49.5494 134.683 48.3399 134.441C45.6791 133.958 40.3573 133.233 35.0356 132.508C34.7937 132.508 34.3099 132.508 34.068 132.267C27.053 131.3 20.2799 130.333 19.5542 130.092C19.7961 129.125 20.2799 128.158 20.2799 127.192C20.5218 126.708 20.5218 126.225 20.5218 125.742C20.7637 123.567 21.0056 121.392 20.7637 119.217C20.7637 118.492 20.7637 117.767 20.7637 117.042C20.5218 113.175 19.5542 108.825 18.8285 104.234C17.8609 99.1589 16.8934 93.6007 16.4096 87.0758C16.4096 86.1092 16.1677 85.1425 16.1677 84.1759C16.1677 82.2426 15.9258 80.0676 15.9258 77.8927C15.9258 65.0846 23.9084 53.2432 24.3922 52.5182C24.3922 52.5182 27.053 53.4849 29.9558 54.4515C29.9558 54.4515 42.7763 57.8348 55.113 74.5094C58.9834 79.3426 62.6118 82.4843 63.3375 89.2508Z" fill="#5589B9"/>
<path opacity="0.4" d="M47.8579 45.0261L46.8903 49.6177L45.9227 54.2092C43.7457 52.7592 40.3591 50.101 39.3915 48.651C36.4888 44.3011 35.5212 39.7095 35.2793 34.393C37.6983 38.5012 42.5362 41.8845 46.6484 44.3011C47.1322 44.7844 47.616 44.7844 47.8579 45.0261Z" fill="#FFAE80"/>
<path d="M61.645 29.3187C59.7098 26.6604 58.5004 25.2104 58.0166 23.0355C64.3059 -7.89716 0.928991 2.2526 24.8767 34.8769L30.9242 34.1519C34.0688 41.8851 39.1486 46.7183 49.0664 48.4099C52.4529 48.1683 55.3557 48.4099 57.7747 45.9933C59.226 43.8184 59.9517 40.4351 59.7098 35.3602C59.7098 34.3936 60.1936 33.4269 61.1612 32.9436C61.8869 32.2186 62.8545 31.0103 61.645 29.3187Z" fill="#FFAE80"/>
<path d="M27.2959 48.4097C25.3607 45.7514 14.2335 38.2599 13.9916 23.5186C13.2659 -6.93076 55.8397 -3.0642 55.8397 10.4688C55.8397 10.4688 55.5978 8.2939 49.3085 18.6853C45.6801 24.7269 39.3908 25.4518 37.4556 33.6683C33.8271 48.4097 27.2959 48.4097 27.2959 48.4097Z" fill="#21201D"/>
<path d="M105.428 267.355L86.0758 264.939C84.1406 264.697 82.2054 263.489 81.2379 261.797L78.0932 256.239L77.8513 258.414L77.3675 263.006V263.972L73.0134 263.489C73.0134 262.764 73.2553 262.039 73.2553 261.314C73.4972 257.447 72.7715 254.789 72.7715 251.889C72.7715 248.748 73.2553 245.364 76.6418 239.806C77.8513 237.631 77.6094 228.206 77.3675 217.573C77.1256 211.048 76.8837 204.04 77.1256 197.999C77.1256 192.924 77.6094 188.574 78.3351 185.432C78.8189 183.741 79.3027 181.807 79.7865 180.357C80.5122 178.182 81.2378 176.249 81.9635 174.316C82.4473 173.108 82.9311 171.899 83.4149 170.691C84.6244 168.033 85.8339 166.099 86.5596 164.408C87.7691 162.474 88.4948 161.266 88.4948 161.266C96.4773 156.191 106.153 154.983 107.121 163.683C107.363 165.133 107.121 167.066 106.879 169.241C106.879 169.241 106.637 170.449 105.911 172.141C105.669 173.107 105.186 174.074 104.944 175.282C103.976 178.182 103.009 182.049 101.557 186.399C100.59 189.299 99.622 192.682 98.8963 196.065C94.0584 212.982 88.7367 233.04 88.2529 241.256C87.7691 246.814 96.2354 258.172 96.2354 258.172C101.315 262.764 110.265 265.906 105.428 267.355Z" fill="#FFAE80"/>
<path d="M76.3994 239.805C76.3994 239.805 76.8832 239.805 77.367 240.047C80.0279 241.013 81.9631 242.947 82.9306 245.605L85.3496 252.372C86.3172 255.271 88.9781 257.446 92.1227 257.688L95.7512 257.93C95.7512 258.171 95.9931 258.171 95.9931 258.171C101.315 262.763 110.507 265.904 105.669 267.596L86.3172 265.18C84.382 264.938 82.4469 263.73 81.4793 262.038L78.3346 256.48L77.367 264.213L73.0129 263.73C74.2224 253.58 69.8682 251.163 76.3994 239.805Z" fill="#EA4A49"/>
<path d="M40.6012 30.5269C41.3269 33.6685 41.8107 35.6018 39.8755 36.0851C37.6985 36.5685 34.07 34.3935 33.3443 31.2519C32.6186 28.1103 34.3119 25.9353 36.489 25.452C38.666 24.9687 39.8755 27.3853 40.6012 30.5269Z" fill="#FFAE80"/>
<path d="M39.8723 35.1185C40.1142 35.8435 39.6304 36.8101 38.6629 37.0517C37.9372 37.2934 36.9696 36.8101 36.7277 35.8435C36.4858 35.1185 36.9696 34.1519 37.9372 33.9102C38.9047 33.9102 39.6304 34.3935 39.8723 35.1185Z" fill="white"/>
<path opacity="0.3" d="M63.3378 90.9424C63.0959 99.1589 53.9038 102.3 53.9038 102.3C53.9038 103.025 53.9038 103.509 53.9038 104.234C53.9038 104.717 53.9038 105.442 53.9038 105.925C53.9038 107.859 53.6619 109.792 53.6619 111.725C53.1781 115.592 52.9362 118.975 52.4524 122.117C51.9686 125.983 51.243 129.85 51.0011 133.233L48.824 132.75L34.3102 129.85L21.4897 127.192C21.2478 126.708 21.0059 126.225 20.764 125.742C21.0059 123.567 21.2478 121.392 21.0059 119.217C21.0059 118.492 21.0059 117.767 21.0059 117.042C20.764 113.175 19.7964 108.825 19.0707 104.234C18.1031 99.1589 17.1355 93.6007 16.6518 87.0758C16.6518 86.1092 16.4099 85.1425 16.4099 84.1759C16.4099 82.2426 16.168 80.0676 16.168 77.8927C16.168 65.0846 24.1506 53.2432 24.6343 52.5182C16.4099 74.7511 28.0209 79.5843 40.5995 83.4509L48.824 99.1589C54.3876 98.6756 59.7093 95.5339 63.3378 90.9424Z" fill="#456F96"/>
<path opacity="0.5" d="M90.9159 146.282C90.9159 146.282 51.4868 149.666 34.7959 132.266C30.1999 127.674 23.9106 128.158 21.0078 127.191L33.8283 129.849L48.3421 132.749C51.4868 133.233 69.1452 136.858 90.9159 146.282Z" fill="#EA4A49"/>
<path d="M107.121 171.898C106.396 176.248 104.944 181.081 103.251 186.639C102.767 186.639 102.525 186.64 102.042 186.398C101.8 186.398 101.558 186.398 101.316 186.398C99.3808 186.156 97.2037 185.673 95.2685 185.431C89.9468 184.223 84.6251 182.531 79.3034 180.356C77.3682 179.631 75.433 178.665 73.4978 177.698C70.837 176.49 68.1761 174.798 65.5153 173.348C65.5153 173.348 34.0687 173.831 21.0063 170.69C15.6846 169.482 11.8142 165.132 10.8466 159.815C9.87906 154.499 9.39525 150.39 11.3304 144.349C11.8142 142.415 12.7818 140.24 13.7494 137.824C15.2008 134.441 17.3778 131.057 20.2806 127.432H21.2482L34.0687 130.091L48.5825 132.991C51.7271 133.474 89.7049 142.899 102.284 153.048C103.251 153.773 104.219 154.74 104.944 155.465C105.912 156.673 106.638 157.882 107.121 159.09C108.331 162.473 108.089 166.823 107.121 171.898Z" fill="#EA4A49"/>
<path d="M38.181 71.6092L51.2434 117.042C54.63 126.225 40.8419 132.991 36.7296 121.15L21.2483 76.6841C16.8942 61.2178 34.3107 59.0428 38.181 71.6092Z" fill="#5589B9"/>
<path opacity="0.5" d="M102.042 186.399C101.8 186.399 101.558 186.399 101.316 186.399C99.3807 186.157 97.2037 185.673 95.2685 185.432C89.9468 184.223 84.6251 182.532 79.3033 180.357C77.3682 179.632 75.433 178.665 73.4978 177.699C70.837 176.49 68.1761 174.799 65.5152 173.349C65.5152 173.349 34.0687 173.832 21.0063 170.69C15.6846 169.482 11.8142 165.132 10.8466 159.816C9.87906 154.499 9.39526 150.391 11.3304 144.349C16.4103 161.024 20.0387 176.49 70.1113 163.682C80.029 178.665 102.042 186.399 102.042 186.399Z" fill="#EA4A49"/>
<path d="M63.8607 183.95V257.657C63.8607 263.457 59.0228 268.29 53.2172 268.29H10.6435C4.83793 268.29 0 263.457 0 257.657V183.95C0 178.15 4.83793 173.317 10.6435 173.317H53.2172C59.0228 173.317 63.8607 177.909 63.8607 183.95Z" fill="#F9B233"/>
<path d="M63.6188 192.167H0V197.966H63.6188V192.167Z" fill="#5E4A4C"/>
<path d="M16.9348 173.317H13.0645V268.29H16.9348V173.317Z" fill="#5E4A4C"/>
<path d="M51.5246 173.317H47.6543V261.04H51.5246V173.317Z" fill="#5E4A4C"/>
<path d="M181.419 268.057H85.6282C80.7903 268.057 76.9199 264.19 76.9199 259.357V199.425C76.9199 194.592 80.7903 190.725 85.6282 190.725H181.419C186.257 190.725 190.127 194.592 190.127 199.425V259.357C190.369 264.19 186.499 268.057 181.419 268.057Z" fill="black"/>
<path d="M145.622 185.65C137.881 182.508 129.173 182.508 121.432 185.65C119.981 186.133 118.529 185.65 117.804 184.441C117.078 183.233 117.804 181.541 119.497 180.816C128.447 177.191 138.607 177.191 147.557 180.816C149.25 181.541 149.976 183.233 149.25 184.441C148.525 185.65 147.073 186.133 145.622 185.65Z" fill="black"/>
<path d="M120.703 190.483H118.768V183.958C118.768 183.474 119.251 182.991 119.735 182.991C120.219 182.991 120.703 183.474 120.703 183.958V190.483Z" fill="#DADADA"/>
<path d="M148.523 190.483H146.588V183.958C146.588 183.474 147.072 182.991 147.555 182.991C148.039 182.991 148.523 183.474 148.523 183.958V190.483Z" fill="#DADADA"/>
<path d="M89.0156 201.841C89.0156 202.324 88.5318 202.808 88.048 202.808H76.9207C76.4369 202.808 75.9531 202.324 75.9531 201.841V198.216C75.9531 193.625 79.8235 189.758 84.4195 189.758H88.048C88.5318 189.758 89.0156 190.241 89.0156 190.725V201.841Z" fill="#DADADA"/>
<path d="M178.035 201.841C178.035 202.324 178.519 202.808 179.003 202.808H190.13C190.614 202.808 191.098 202.324 191.098 201.841V198.216C191.098 193.625 187.227 189.758 182.631 189.758H179.003C178.519 189.758 178.035 190.241 178.035 190.725V201.841Z" fill="#DADADA"/>
<path d="M178.035 256.698C178.035 256.215 178.519 255.731 179.003 255.731H190.13C190.614 255.731 191.098 256.215 191.098 256.698V260.323C191.098 264.914 187.227 268.781 182.631 268.781H179.003C178.519 268.781 178.035 268.298 178.035 267.814V256.698Z" fill="#DADADA"/>
<path d="M89.0156 256.698C89.0156 256.215 88.5318 255.731 88.048 255.731H76.9207C76.4369 255.731 75.9531 256.215 75.9531 256.698V260.323C75.9531 264.914 79.8235 268.781 84.4195 268.781H88.048C88.5318 268.781 89.0156 268.298 89.0156 267.814V256.698Z" fill="#DADADA"/>
<path d="M94.0965 214.157H71.3583V208.841C71.3583 206.666 69.665 204.974 67.4879 204.974H51.2809C49.1038 204.974 47.4105 206.666 47.4105 208.841V214.157H24.6722C19.3505 214.157 15.2383 218.265 15.2383 223.582V258.623C15.2383 263.939 19.3505 268.048 24.6722 268.048H94.3384C99.6602 268.048 103.772 263.939 103.772 258.623V223.582C103.531 218.507 99.4183 214.157 94.0965 214.157ZM51.039 208.841C51.039 208.599 51.2809 208.599 51.2809 208.599H67.4879C67.7298 208.599 67.7298 208.841 67.7298 208.841V214.157H51.039V208.841Z" fill="#EA4A49"/>
<path d="M39.6704 214.158H31.9297V268.048H39.6704V214.158Z" fill="#FDFDFD"/>
<path d="M86.8403 214.158H79.0996V268.048H86.8403V214.158Z" fill="#FDFDFD"/>
<path d="M40.8804 230.107H30.7207V220.682H40.8804V230.107ZM33.1397 227.691H38.4614V223.099H33.1397V227.691Z" fill="#231F20"/>
<path d="M88.0503 230.107H77.8906V220.682H88.0503V230.107ZM80.3096 227.691H85.6313V223.099H80.3096V227.691Z" fill="#231F20"/>
</svg>
